<?xml version="1.0" standalone="no"?>
<!DOCTYPE svg PUBLIC "-//W3C//DTD SVG 20010904//EN"
 "http://www.w3.org/TR/2001/REC-SVG-20010904/DTD/svg10.dtd">
<svg version="1.0" xmlns="http://www.w3.org/2000/svg"
 width="512.000000pt" height="512.000000pt" viewBox="0 0 512.000000 512.000000"
 preserveAspectRatio="xMidYMid meet">

<g transform="translate(0.000000,512.000000) scale(0.100000,-0.100000)"
fill="#000000" stroke="none">
<path d="M2345 4629 c-390 -40 -796 -209 -1099 -457 -536 -438 -824 -1130
-756 -1813 100 -989 880 -1769 1869 -1869 530 -53 1088 113 1503 448 639 516
917 1360 708 2148 -42 160 -115 348 -131 338 -8 -4 -314 -402 -331 -429 -3 -5
2 -45 12 -87 134 -562 -78 -1193 -528 -1568 -217 -182 -456 -296 -737 -352
-162 -33 -434 -32 -595 1 -579 119 -1028 512 -1216 1063 -59 173 -78 298 -78
508 0 152 4 205 22 298 132 661 626 1149 1297 1279 139 27 426 25 570 -5 186
-37 364 -104 518 -195 l78 -46 194 147 c106 81 193 152 191 157 -6 21 -238
170 -361 230 -345 171 -749 244 -1130 204z"/>
<path d="M4399 4201 c-14 -5 -35 -14 -48 -20 -29 -16 -617 -506 -1205 -1006
-277 -235 -465 -389 -475 -387 -9 2 -61 4 -116 4 -79 1 -114 -4 -165 -21 -170
-59 -298 -186 -358 -355 -36 -102 -36 -250 0 -352 62 -175 210 -314 388 -365
58 -16 222 -16 280 0 168 48 310 175 378 338 32 75 47 195 34 268 l-10 59 147
170 c558 649 1207 1426 1250 1497 29 48 29 118 -1 147 -28 25 -64 33 -99 23z"/>
<path d="M2495 3986 c-103 -45 -126 -180 -44 -258 68 -65 153 -64 219 2 124
124 -14 326 -175 256z"/>
<path d="M1855 3826 c-103 -45 -126 -180 -44 -258 68 -65 153 -64 219 2 124
124 -14 326 -175 256z"/>
<path d="M3135 3826 c-93 -41 -124 -168 -60 -245 51 -60 126 -76 195 -41 59
30 85 74 85 142 0 61 -17 94 -67 131 -33 25 -113 32 -153 13z"/>
<path d="M1375 3346 c-103 -45 -126 -180 -44 -258 68 -65 153 -64 219 2 124
124 -14 326 -175 256z"/>
<path d="M1215 2706 c-103 -45 -126 -180 -44 -258 68 -65 153 -64 219 2 124
124 -14 326 -175 256z"/>
<path d="M3775 2706 c-93 -41 -124 -168 -60 -245 51 -60 126 -76 195 -41 59
30 85 74 85 142 0 61 -17 94 -67 131 -33 25 -113 32 -153 13z"/>
</g>
</svg>
