<?xml version="1.0" standalone="no"?>
<!DOCTYPE svg PUBLIC "-//W3C//DTD SVG 20010904//EN"
 "http://www.w3.org/TR/2001/REC-SVG-20010904/DTD/svg10.dtd">
<svg version="1.0" xmlns="http://www.w3.org/2000/svg"
 width="137.000000pt" height="137.000000pt" viewBox="0 0 137.000000 137.000000"
 preserveAspectRatio="xMidYMid meet">

<g transform="translate(0.000000,137.000000) scale(0.100000,-0.100000)"
fill="#000000" stroke="none">
<path d="M642 1358 c-12 -6 -25 -22 -28 -35 -5 -20 -12 -23 -53 -23 -25 0 -59
-7 -75 -15 -20 -11 -61 -15 -142 -15 -102 0 -114 -2 -124 -19 -6 -13 -10 -225
-10 -620 0 -532 2 -601 16 -615 14 -14 69 -16 459 -16 390 0 445 2 459 16 14
14 16 83 16 615 0 395 -4 607 -10 620 -10 17 -22 19 -124 19 -81 0 -122 4
-142 15 -16 8 -50 15 -75 15 -41 0 -48 3 -53 23 -10 40 -67 57 -114 35z m-174
-193 l22 -25 195 0 195 0 22 25 c20 23 29 25 100 25 l78 0 0 -555 0 -555 -395
0 -395 0 0 555 0 555 78 0 c71 0 80 -2 100 -25z"/>
<path d="M370 1020 l0 -30 315 0 315 0 0 30 0 30 -315 0 -315 0 0 -30z"/>
<path d="M370 880 l0 -30 315 0 315 0 0 30 0 30 -315 0 -315 0 0 -30z"/>
<path d="M370 740 l0 -30 315 0 315 0 0 30 0 30 -315 0 -315 0 0 -30z"/>
<path d="M370 600 l0 -30 315 0 315 0 0 30 0 30 -315 0 -315 0 0 -30z"/>
<path d="M843 472 c-26 -21 -82 -76 -122 -121 l-75 -83 -28 34 c-15 18 -32 45
-39 61 -6 15 -19 27 -29 27 -18 0 -44 -25 -52 -50 -8 -22 24 -80 74 -135 33
-36 48 -46 64 -41 10 3 48 40 84 82 35 41 97 106 137 144 74 70 78 76 67 104
-9 25 -28 19 -81 -22z"/>
</g>
</svg>
